<svg id="visual" viewBox="0 0 900 600" width="900" height="600" xmlns="http://www.w3.org/2000/svg" xmlns:xlink="http://www.w3.org/1999/xlink" version="1.1"><g transform="translate(454.6390031564697 304.90452297737363)"><path d="M162.9 -203.4C197.2 -165.3 201.5 -100.8 207.7 -40.3C214 20.1 222.2 76.6 203.7 126.2C185.3 175.7 140.2 218.5 89.5 230C38.9 241.5 -17.3 221.8 -63.5 195.7C-109.6 169.7 -145.8 137.3 -177 96C-208.2 54.7 -234.6 4.3 -220.4 -32.3C-206.1 -69 -151.3 -91.9 -107.8 -128.4C-64.3 -164.9 -32.1 -215 16.1 -234.1C64.3 -253.3 128.6 -241.5 162.9 -203.4" fill="#02784a"></path></g></svg>