<svg id="visual" viewBox="0 0 900 600" width="900" height="600" xmlns="http://www.w3.org/2000/svg" xmlns:xlink="http://www.w3.org/1999/xlink" version="1.1"><g transform="translate(436.27441775626863 252.51775619249088)"><path d="M107.8 -111.5C149.1 -93.7 198.7 -68.8 216.4 -29.1C234.2 10.5 220.1 64.7 195.9 119C171.6 173.3 137.1 227.6 93.4 233.6C49.6 239.6 -3.4 197.3 -57.3 171.6C-111.2 145.9 -166 136.7 -186.7 105.5C-207.3 74.4 -193.8 21.3 -173.2 -19.3C-152.7 -60 -125.2 -88.2 -95.2 -107.9C-65.1 -127.6 -32.6 -138.8 0.3 -139.2C33.2 -139.6 66.4 -129.2 107.8 -111.5" fill="#02784a"></path></g></svg>