<svg id="visual" viewBox="0 0 900 100" width="900" height="100" xmlns="http://www.w3.org/2000/svg" xmlns:xlink="http://www.w3.org/1999/xlink" version="1.1"><path d="M0 58L10 52.7C20 47.3 40 36.7 60 35.8C80 35 100 44 120 52.8C140 61.7 160 70.3 180 74.3C200 78.3 220 77.7 240 75.8C260 74 280 71 300 62.3C320 53.7 340 39.3 360 31.2C380 23 400 21 420 25.3C440 29.7 460 40.3 480 47.2C500 54 520 57 540 61.7C560 66.3 580 72.7 600 69.7C620 66.7 640 54.3 660 48C680 41.7 700 41.3 720 45.2C740 49 760 57 780 62.3C800 67.7 820 70.3 840 66.3C860 62.3 880 51.7 890 46.3L900 41L900 101L890 101C880 101 860 101 840 101C820 101 800 101 780 101C760 101 740 101 720 101C700 101 680 101 660 101C640 101 620 101 600 101C580 101 560 101 540 101C520 101 500 101 480 101C460 101 440 101 420 101C400 101 380 101 360 101C340 101 320 101 300 101C280 101 260 101 240 101C220 101 200 101 180 101C160 101 140 101 120 101C100 101 80 101 60 101C40 101 20 101 10 101L0 101Z" fill="#352f2f" stroke-linecap="round" stroke-linejoin="miter"></path></svg>