<svg id="visual" viewBox="0 0 900 100" width="900" height="100" xmlns="http://www.w3.org/2000/svg" xmlns:xlink="http://www.w3.org/1999/xlink" version="1.1"><path d="M0 76L9.3 76.8C18.7 77.7 37.3 79.3 56.2 75.3C75 71.3 94 61.7 112.8 59.7C131.7 57.7 150.3 63.3 169 69.5C187.7 75.7 206.3 82.3 225 77.2C243.7 72 262.3 55 281.2 48.5C300 42 319 46 337.8 43.2C356.7 40.3 375.3 30.7 394 25C412.7 19.3 431.3 17.7 450 27.2C468.7 36.7 487.3 57.3 506.2 56.3C525 55.3 544 32.7 562.8 21.7C581.7 10.7 600.3 11.3 619 17.8C637.7 24.3 656.3 36.7 675 36.3C693.7 36 712.3 23 731.2 18.8C750 14.7 769 19.3 787.8 30.3C806.7 41.3 825.3 58.7 844 66C862.7 73.3 881.3 70.7 890.7 69.3L900 68L900 101L890.7 101C881.3 101 862.7 101 844 101C825.3 101 806.7 101 787.8 101C769 101 750 101 731.2 101C712.3 101 693.7 101 675 101C656.3 101 637.7 101 619 101C600.3 101 581.7 101 562.8 101C544 101 525 101 506.2 101C487.3 101 468.7 101 450 101C431.3 101 412.7 101 394 101C375.3 101 356.7 101 337.8 101C319 101 300 101 281.2 101C262.3 101 243.7 101 225 101C206.3 101 187.7 101 169 101C150.3 101 131.7 101 112.8 101C94 101 75 101 56.2 101C37.3 101 18.7 101 9.3 101L0 101Z" fill="#04044f" stroke-linecap="round" stroke-linejoin="miter"></path></svg>