<svg id="visual" viewBox="0 0 900 100" width="900" height="100" xmlns="http://www.w3.org/2000/svg" xmlns:xlink="http://www.w3.org/1999/xlink" version="1.1"><path d="M0 68L10 65.2C20 62.3 40 56.7 60 50.3C80 44 100 37 120 36.5C140 36 160 42 180 45.2C200 48.3 220 48.7 240 43.3C260 38 280 27 300 30C320 33 340 50 360 58.7C380 67.3 400 67.7 420 67.2C440 66.7 460 65.3 480 58.8C500 52.3 520 40.7 540 34C560 27.3 580 25.7 600 26.3C620 27 640 30 660 36.7C680 43.3 700 53.7 720 53C740 52.3 760 40.7 780 43.7C800 46.7 820 64.3 840 64.3C860 64.3 880 46.7 890 37.8L900 29L900 101L890 101C880 101 860 101 840 101C820 101 800 101 780 101C760 101 740 101 720 101C700 101 680 101 660 101C640 101 620 101 600 101C580 101 560 101 540 101C520 101 500 101 480 101C460 101 440 101 420 101C400 101 380 101 360 101C340 101 320 101 300 101C280 101 260 101 240 101C220 101 200 101 180 101C160 101 140 101 120 101C100 101 80 101 60 101C40 101 20 101 10 101L0 101Z" fill="#881FEA" stroke-linecap="round" stroke-linejoin="miter"></path></svg>