<svg id="visual" viewBox="0 0 900 100" width="900" height="100" xmlns="http://www.w3.org/2000/svg" xmlns:xlink="http://www.w3.org/1999/xlink" version="1.1"><rect x="0" y="0" width="900" height="100" fill="#02784A"></rect><path d="M0 82L6.5 78.5C13 75 26 68 39 66.3C52 64.7 65 68.3 78 69.7C91 71 104 70 117.2 71.8C130.3 73.7 143.7 78.3 156.8 76.3C170 74.3 183 65.7 196 67.2C209 68.7 222 80.3 235 85.7C248 91 261 90 274 89C287 88 300 87 313 82.7C326 78.3 339 70.7 352 66.5C365 62.3 378 61.7 391 62.7C404 63.7 417 66.3 430.2 64.8C443.3 63.3 456.7 57.7 469.8 61.2C483 64.7 496 77.3 509 80.7C522 84 535 78 548 69.8C561 61.7 574 51.3 587 53.3C600 55.3 613 69.7 626 77.3C639 85 652 86 665 82.7C678 79.3 691 71.7 704 70C717 68.3 730 72.7 743.2 74.5C756.3 76.3 769.7 75.7 782.8 72.5C796 69.3 809 63.7 822 60.3C835 57 848 56 861 56C874 56 887 57 893.5 57.5L900 58L900 0L893.5 0C887 0 874 0 861 0C848 0 835 0 822 0C809 0 796 0 782.8 0C769.7 0 756.3 0 743.2 0C730 0 717 0 704 0C691 0 678 0 665 0C652 0 639 0 626 0C613 0 600 0 587 0C574 0 561 0 548 0C535 0 522 0 509 0C496 0 483 0 469.8 0C456.7 0 443.3 0 430.2 0C417 0 404 0 391 0C378 0 365 0 352 0C339 0 326 0 313 0C300 0 287 0 274 0C261 0 248 0 235 0C222 0 209 0 196 0C183 0 170 0 156.8 0C143.7 0 130.3 0 117.2 0C104 0 91 0 78 0C65 0 52 0 39 0C26 0 13 0 6.5 0L0 0Z" fill="#02784a"></path><path d="M0 45L6.5 46.8C13 48.7 26 52.3 39 53.5C52 54.7 65 53.3 78 56.2C91 59 104 66 117.2 64.2C130.3 62.3 143.7 51.7 156.8 51.7C170 51.7 183 62.3 196 61.5C209 60.7 222 48.3 235 44.7C248 41 261 46 274 48.3C287 50.7 300 50.3 313 53.2C326 56 339 62 352 58.7C365 55.3 378 42.7 391 39.8C404 37 417 44 430.2 48.3C443.3 52.7 456.7 54.3 469.8 56.2C483 58 496 60 509 61C522 62 535 62 548 61.8C561 61.7 574 61.3 587 59.8C600 58.3 613 55.7 626 52.5C639 49.3 652 45.7 665 44.2C678 42.7 691 43.3 704 48C717 52.7 730 61.3 743.2 66.5C756.3 71.7 769.7 73.3 782.8 73.3C796 73.3 809 71.7 822 65.2C835 58.7 848 47.3 861 47.3C874 47.3 887 58.7 893.5 64.3L900 70L900 0L893.5 0C887 0 874 0 861 0C848 0 835 0 822 0C809 0 796 0 782.8 0C769.7 0 756.3 0 743.2 0C730 0 717 0 704 0C691 0 678 0 665 0C652 0 639 0 626 0C613 0 600 0 587 0C574 0 561 0 548 0C535 0 522 0 509 0C496 0 483 0 469.8 0C456.7 0 443.3 0 430.2 0C417 0 404 0 391 0C378 0 365 0 352 0C339 0 326 0 313 0C300 0 287 0 274 0C261 0 248 0 235 0C222 0 209 0 196 0C183 0 170 0 156.8 0C143.7 0 130.3 0 117.2 0C104 0 91 0 78 0C65 0 52 0 39 0C26 0 13 0 6.5 0L0 0Z" fill="#559974"></path><path d="M0 33L6.5 36.5C13 40 26 47 39 47.3C52 47.7 65 41.3 78 41.2C91 41 104 47 117.2 48.5C130.3 50 143.7 47 156.8 46.2C170 45.3 183 46.7 196 44.5C209 42.3 222 36.7 235 33.2C248 29.7 261 28.3 274 33.2C287 38 300 49 313 53.3C326 57.7 339 55.3 352 49.2C365 43 378 33 391 31.7C404 30.3 417 37.7 430.2 40.7C443.3 43.7 456.7 42.3 469.8 39.3C483 36.3 496 31.7 509 29.7C522 27.7 535 28.3 548 32.5C561 36.7 574 44.3 587 47.5C600 50.7 613 49.3 626 48.7C639 48 652 48 665 47.5C678 47 691 46 704 46C717 46 730 47 743.2 44.7C756.3 42.3 769.7 36.7 782.8 33.2C796 29.7 809 28.3 822 32.5C835 36.7 848 46.3 861 46C874 45.7 887 35.3 893.5 30.2L900 25L900 0L893.5 0C887 0 874 0 861 0C848 0 835 0 822 0C809 0 796 0 782.8 0C769.7 0 756.3 0 743.2 0C730 0 717 0 704 0C691 0 678 0 665 0C652 0 639 0 626 0C613 0 600 0 587 0C574 0 561 0 548 0C535 0 522 0 509 0C496 0 483 0 469.8 0C456.7 0 443.3 0 430.2 0C417 0 404 0 391 0C378 0 365 0 352 0C339 0 326 0 313 0C300 0 287 0 274 0C261 0 248 0 235 0C222 0 209 0 196 0C183 0 170 0 156.8 0C143.7 0 130.3 0 117.2 0C104 0 91 0 78 0C65 0 52 0 39 0C26 0 13 0 6.5 0L0 0Z" fill="#8ebba0"></path><path d="M0 15L6.5 17C13 19 26 23 39 22.5C52 22 65 17 78 17.3C91 17.7 104 23.3 117.2 26.7C130.3 30 143.7 31 156.8 30.3C170 29.7 183 27.3 196 28.8C209 30.3 222 35.7 235 35.2C248 34.7 261 28.3 274 26.7C287 25 300 28 313 28.5C326 29 339 27 352 29.2C365 31.3 378 37.7 391 39C404 40.3 417 36.7 430.2 34.8C443.3 33 456.7 33 469.8 32.2C483 31.3 496 29.7 509 27.3C522 25 535 22 548 19.3C561 16.7 574 14.3 587 16C600 17.7 613 23.3 626 27C639 30.7 652 32.3 665 33.8C678 35.3 691 36.7 704 36.7C717 36.7 730 35.3 743.2 33C756.3 30.7 769.7 27.3 782.8 27.3C796 27.3 809 30.7 822 29.3C835 28 848 22 861 21.8C874 21.7 887 27.3 893.5 30.2L900 33L900 0L893.5 0C887 0 874 0 861 0C848 0 835 0 822 0C809 0 796 0 782.8 0C769.7 0 756.3 0 743.2 0C730 0 717 0 704 0C691 0 678 0 665 0C652 0 639 0 626 0C613 0 600 0 587 0C574 0 561 0 548 0C535 0 522 0 509 0C496 0 483 0 469.8 0C456.7 0 443.3 0 430.2 0C417 0 404 0 391 0C378 0 365 0 352 0C339 0 326 0 313 0C300 0 287 0 274 0C261 0 248 0 235 0C222 0 209 0 196 0C183 0 170 0 156.8 0C143.7 0 130.3 0 117.2 0C104 0 91 0 78 0C65 0 52 0 39 0C26 0 13 0 6.5 0L0 0Z" fill="#c6ddcf"></path><path d="M0 11L6.5 11.2C13 11.3 26 11.7 39 13.5C52 15.3 65 18.7 78 18.2C91 17.7 104 13.3 117.2 13.3C130.3 13.3 143.7 17.7 156.8 17.2C170 16.7 183 11.3 196 10.7C209 10 222 14 235 13.3C248 12.7 261 7.3 274 7.5C287 7.7 300 13.3 313 14C326 14.7 339 10.3 352 9.7C365 9 378 12 391 14.3C404 16.7 417 18.3 430.2 18.5C443.3 18.7 456.7 17.3 469.8 15.3C483 13.3 496 10.7 509 9.7C522 8.7 535 9.3 548 11.2C561 13 574 16 587 15C600 14 613 9 626 10C639 11 652 18 665 19.3C678 20.7 691 16.3 704 15.8C717 15.3 730 18.7 743.2 21.2C756.3 23.7 769.7 25.3 782.8 24.8C796 24.3 809 21.7 822 19C835 16.3 848 13.7 861 12.5C874 11.3 887 11.7 893.5 11.8L900 12L900 0L893.5 0C887 0 874 0 861 0C848 0 835 0 822 0C809 0 796 0 782.8 0C769.7 0 756.3 0 743.2 0C730 0 717 0 704 0C691 0 678 0 665 0C652 0 639 0 626 0C613 0 600 0 587 0C574 0 561 0 548 0C535 0 522 0 509 0C496 0 483 0 469.8 0C456.7 0 443.3 0 430.2 0C417 0 404 0 391 0C378 0 365 0 352 0C339 0 326 0 313 0C300 0 287 0 274 0C261 0 248 0 235 0C222 0 209 0 196 0C183 0 170 0 156.8 0C143.7 0 130.3 0 117.2 0C104 0 91 0 78 0C65 0 52 0 39 0C26 0 13 0 6.5 0L0 0Z" fill="#ffffff"></path></svg>