<svg id="visual" viewBox="0 0 900 100" width="900" height="100" xmlns="http://www.w3.org/2000/svg" xmlns:xlink="http://www.w3.org/1999/xlink" version="1.1"><path d="M0 46L8.8 46.7C17.7 47.3 35.3 48.7 53 45C70.7 41.3 88.3 32.7 106 38C123.7 43.3 141.3 62.7 159 65.2C176.7 67.7 194.3 53.3 212 45.5C229.7 37.7 247.3 36.3 265 36.3C282.7 36.3 300.3 37.7 318 44.8C335.7 52 353.3 65 371 70.2C388.7 75.3 406.3 72.7 423.8 66C441.3 59.3 458.7 48.7 476.2 47C493.7 45.3 511.3 52.7 529 51.3C546.7 50 564.3 40 582 43.2C599.7 46.3 617.3 62.7 635 61.5C652.7 60.3 670.3 41.7 688 40.8C705.7 40 723.3 57 741 68C758.7 79 776.3 84 794 85.3C811.7 86.7 829.3 84.3 847 82.7C864.7 81 882.3 80 891.2 79.5L900 79L900 0L891.2 0C882.3 0 864.7 0 847 0C829.3 0 811.7 0 794 0C776.3 0 758.7 0 741 0C723.3 0 705.7 0 688 0C670.3 0 652.7 0 635 0C617.3 0 599.7 0 582 0C564.3 0 546.7 0 529 0C511.3 0 493.7 0 476.2 0C458.7 0 441.3 0 423.8 0C406.3 0 388.7 0 371 0C353.3 0 335.7 0 318 0C300.3 0 282.7 0 265 0C247.3 0 229.7 0 212 0C194.3 0 176.7 0 159 0C141.3 0 123.7 0 106 0C88.3 0 70.7 0 53 0C35.3 0 17.7 0 8.8 0L0 0Z" fill="#02784a"></path><path d="M0 35L8.8 41.2C17.7 47.3 35.3 59.7 53 64C70.7 68.3 88.3 64.7 106 63C123.7 61.3 141.3 61.7 159 59.2C176.7 56.7 194.3 51.3 212 46C229.7 40.7 247.3 35.3 265 37.5C282.7 39.7 300.3 49.3 318 49C335.7 48.7 353.3 38.3 371 37.5C388.7 36.7 406.3 45.3 423.8 53C441.3 60.7 458.7 67.3 476.2 69.8C493.7 72.3 511.3 70.7 529 62C546.7 53.3 564.3 37.7 582 37.8C599.7 38 617.3 54 635 58.2C652.7 62.3 670.3 54.7 688 50.2C705.7 45.7 723.3 44.3 741 41C758.7 37.7 776.3 32.3 794 36.7C811.7 41 829.3 55 847 55.3C864.7 55.7 882.3 42.3 891.2 35.7L900 29L900 0L891.2 0C882.3 0 864.7 0 847 0C829.3 0 811.7 0 794 0C776.3 0 758.7 0 741 0C723.3 0 705.7 0 688 0C670.3 0 652.7 0 635 0C617.3 0 599.7 0 582 0C564.3 0 546.7 0 529 0C511.3 0 493.7 0 476.2 0C458.7 0 441.3 0 423.8 0C406.3 0 388.7 0 371 0C353.3 0 335.7 0 318 0C300.3 0 282.7 0 265 0C247.3 0 229.7 0 212 0C194.3 0 176.7 0 159 0C141.3 0 123.7 0 106 0C88.3 0 70.7 0 53 0C35.3 0 17.7 0 8.8 0L0 0Z" fill="#418e66"></path><path d="M0 43L8.8 45.8C17.7 48.7 35.3 54.3 53 58C70.7 61.7 88.3 63.3 106 61.3C123.7 59.3 141.3 53.7 159 47.5C176.7 41.3 194.3 34.7 212 37.5C229.7 40.3 247.3 52.7 265 57.2C282.7 61.7 300.3 58.3 318 52.2C335.7 46 353.3 37 371 35.2C388.7 33.3 406.3 38.7 423.8 37.5C441.3 36.3 458.7 28.7 476.2 28.3C493.7 28 511.3 35 529 35.7C546.7 36.3 564.3 30.7 582 26.3C599.7 22 617.3 19 635 25C652.7 31 670.3 46 688 46.7C705.7 47.3 723.3 33.7 741 31.3C758.7 29 776.3 38 794 41C811.7 44 829.3 41 847 40.7C864.7 40.3 882.3 42.7 891.2 43.8L900 45L900 0L891.2 0C882.3 0 864.7 0 847 0C829.3 0 811.7 0 794 0C776.3 0 758.7 0 741 0C723.3 0 705.7 0 688 0C670.3 0 652.7 0 635 0C617.3 0 599.7 0 582 0C564.3 0 546.7 0 529 0C511.3 0 493.7 0 476.2 0C458.7 0 441.3 0 423.8 0C406.3 0 388.7 0 371 0C353.3 0 335.7 0 318 0C300.3 0 282.7 0 265 0C247.3 0 229.7 0 212 0C194.3 0 176.7 0 159 0C141.3 0 123.7 0 106 0C88.3 0 70.7 0 53 0C35.3 0 17.7 0 8.8 0L0 0Z" fill="#69a582"></path><path d="M0 34L8.8 34C17.7 34 35.3 34 53 33.2C70.7 32.3 88.3 30.7 106 31.8C123.7 33 141.3 37 159 39.8C176.7 42.7 194.3 44.3 212 42.7C229.7 41 247.3 36 265 32.3C282.7 28.7 300.3 26.3 318 30.2C335.7 34 353.3 44 371 49.2C388.7 54.3 406.3 54.7 423.8 49.8C441.3 45 458.7 35 476.2 28.8C493.7 22.7 511.3 20.3 529 19.7C546.7 19 564.3 20 582 20.7C599.7 21.3 617.3 21.7 635 26.7C652.7 31.7 670.3 41.3 688 46C705.7 50.7 723.3 50.3 741 46.7C758.7 43 776.3 36 794 35.8C811.7 35.7 829.3 42.3 847 44.3C864.7 46.3 882.3 43.7 891.2 42.3L900 41L900 0L891.2 0C882.3 0 864.7 0 847 0C829.3 0 811.7 0 794 0C776.3 0 758.7 0 741 0C723.3 0 705.7 0 688 0C670.3 0 652.7 0 635 0C617.3 0 599.7 0 582 0C564.3 0 546.7 0 529 0C511.3 0 493.7 0 476.2 0C458.7 0 441.3 0 423.8 0C406.3 0 388.7 0 371 0C353.3 0 335.7 0 318 0C300.3 0 282.7 0 265 0C247.3 0 229.7 0 212 0C194.3 0 176.7 0 159 0C141.3 0 123.7 0 106 0C88.3 0 70.7 0 53 0C35.3 0 17.7 0 8.8 0L0 0Z" fill="#8ebba0"></path><path d="M0 38L8.8 38.2C17.7 38.3 35.3 38.7 53 36.2C70.7 33.7 88.3 28.3 106 23.8C123.7 19.3 141.3 15.7 159 15.7C176.7 15.7 194.3 19.3 212 20.7C229.7 22 247.3 21 265 24.5C282.7 28 300.3 36 318 38.3C335.7 40.7 353.3 37.3 371 31.5C388.7 25.7 406.3 17.3 423.8 15C441.3 12.7 458.7 16.3 476.2 19.2C493.7 22 511.3 24 529 26.7C546.7 29.3 564.3 32.7 582 29.8C599.7 27 617.3 18 635 19C652.7 20 670.3 31 688 31.2C705.7 31.3 723.3 20.7 741 19.8C758.7 19 776.3 28 794 29.8C811.7 31.7 829.3 26.3 847 26.3C864.7 26.3 882.3 31.7 891.2 34.3L900 37L900 0L891.2 0C882.3 0 864.7 0 847 0C829.3 0 811.7 0 794 0C776.3 0 758.7 0 741 0C723.3 0 705.7 0 688 0C670.3 0 652.7 0 635 0C617.3 0 599.7 0 582 0C564.3 0 546.7 0 529 0C511.3 0 493.7 0 476.2 0C458.7 0 441.3 0 423.8 0C406.3 0 388.7 0 371 0C353.3 0 335.7 0 318 0C300.3 0 282.7 0 265 0C247.3 0 229.7 0 212 0C194.3 0 176.7 0 159 0C141.3 0 123.7 0 106 0C88.3 0 70.7 0 53 0C35.3 0 17.7 0 8.8 0L0 0Z" fill="#b3d1bf"></path><path d="M0 7L8.8 9.3C17.7 11.7 35.3 16.3 53 16.2C70.7 16 88.3 11 106 12.5C123.7 14 141.3 22 159 24.5C176.7 27 194.3 24 212 21.2C229.7 18.3 247.3 15.7 265 14.3C282.7 13 300.3 13 318 15.7C335.7 18.3 353.3 23.7 371 26.7C388.7 29.7 406.3 30.3 423.8 27.8C441.3 25.3 458.7 19.7 476.2 15.3C493.7 11 511.3 8 529 6.7C546.7 5.3 564.3 5.7 582 6.2C599.7 6.7 617.3 7.3 635 11.7C652.7 16 670.3 24 688 26.3C705.7 28.7 723.3 25.3 741 23.8C758.7 22.3 776.3 22.7 794 21.2C811.7 19.7 829.3 16.3 847 14.2C864.7 12 882.3 11 891.2 10.5L900 10L900 0L891.2 0C882.3 0 864.7 0 847 0C829.3 0 811.7 0 794 0C776.3 0 758.7 0 741 0C723.3 0 705.7 0 688 0C670.3 0 652.7 0 635 0C617.3 0 599.7 0 582 0C564.3 0 546.7 0 529 0C511.3 0 493.7 0 476.2 0C458.7 0 441.3 0 423.8 0C406.3 0 388.7 0 371 0C353.3 0 335.7 0 318 0C300.3 0 282.7 0 265 0C247.3 0 229.7 0 212 0C194.3 0 176.7 0 159 0C141.3 0 123.7 0 106 0C88.3 0 70.7 0 53 0C35.3 0 17.7 0 8.8 0L0 0Z" fill="#d9e8de"></path><path d="M0 13L8.8 14.2C17.7 15.3 35.3 17.7 53 17.5C70.7 17.3 88.3 14.7 106 12.8C123.7 11 141.3 10 159 11C176.7 12 194.3 15 212 16.8C229.7 18.7 247.3 19.3 265 17.2C282.7 15 300.3 10 318 7.2C335.7 4.3 353.3 3.7 371 5.5C388.7 7.3 406.3 11.7 423.8 11.5C441.3 11.3 458.7 6.7 476.2 5C493.7 3.3 511.3 4.7 529 7C546.7 9.3 564.3 12.7 582 14.5C599.7 16.3 617.3 16.7 635 15.5C652.7 14.3 670.3 11.7 688 9.5C705.7 7.3 723.3 5.7 741 7.3C758.7 9 776.3 14 794 14C811.7 14 829.3 9 847 7.2C864.7 5.3 882.3 6.7 891.2 7.3L900 8L900 0L891.2 0C882.3 0 864.7 0 847 0C829.3 0 811.7 0 794 0C776.3 0 758.7 0 741 0C723.3 0 705.7 0 688 0C670.3 0 652.7 0 635 0C617.3 0 599.7 0 582 0C564.3 0 546.7 0 529 0C511.3 0 493.7 0 476.2 0C458.7 0 441.3 0 423.8 0C406.3 0 388.7 0 371 0C353.3 0 335.7 0 318 0C300.3 0 282.7 0 265 0C247.3 0 229.7 0 212 0C194.3 0 176.7 0 159 0C141.3 0 123.7 0 106 0C88.3 0 70.7 0 53 0C35.3 0 17.7 0 8.8 0L0 0Z" fill="#ffffff"></path></svg>