<svg id="visual" viewBox="0 0 900 100" width="900" height="100" xmlns="http://www.w3.org/2000/svg" xmlns:xlink="http://www.w3.org/1999/xlink" version="1.1"><path d="M0 23L8.3 25.8C16.7 28.7 33.3 34.3 50 35.7C66.7 37 83.3 34 100 32.2C116.7 30.3 133.3 29.7 150 32.3C166.7 35 183.3 41 200 47.5C216.7 54 233.3 61 250 64.8C266.7 68.7 283.3 69.3 300 62.8C316.7 56.3 333.3 42.7 350 32.2C366.7 21.7 383.3 14.3 400 22.3C416.7 30.3 433.3 53.7 450 59.5C466.7 65.3 483.3 53.7 500 45.3C516.7 37 533.3 32 550 33C566.7 34 583.3 41 600 41.5C616.7 42 633.3 36 650 39.5C666.7 43 683.3 56 700 52.2C716.7 48.3 733.3 27.7 750 20.2C766.7 12.7 783.3 18.3 800 26.5C816.7 34.7 833.3 45.3 850 48.2C866.7 51 883.3 46 891.7 43.5L900 41L900 101L891.7 101C883.3 101 866.7 101 850 101C833.3 101 816.7 101 800 101C783.3 101 766.7 101 750 101C733.3 101 716.7 101 700 101C683.3 101 666.7 101 650 101C633.3 101 616.7 101 600 101C583.3 101 566.7 101 550 101C533.3 101 516.7 101 500 101C483.3 101 466.7 101 450 101C433.3 101 416.7 101 400 101C383.3 101 366.7 101 350 101C333.3 101 316.7 101 300 101C283.3 101 266.7 101 250 101C233.3 101 216.7 101 200 101C183.3 101 166.7 101 150 101C133.3 101 116.7 101 100 101C83.3 101 66.7 101 50 101C33.3 101 16.7 101 8.3 101L0 101Z" fill="#E7CD59" stroke-linecap="round" stroke-linejoin="miter"></path></svg>